<?xml version="1.0" encoding="UTF-8"?>
<!DOCTYPE svg PUBLIC "-//W3C//DTD SVG 1.1//EN" "http://www.w3.org/Graphics/SVG/1.1/DTD/svg11.dtd">
<svg xmlns="http://www.w3.org/2000/svg" version="1.1" width="266px" height="73px" style="shape-rendering:geometricPrecision; text-rendering:geometricPrecision; image-rendering:optimizeQuality; fill-rule:evenodd; clip-rule:evenodd" xmlns:xlink="http://www.w3.org/1999/xlink">
<g><path style="opacity:1" fill="#51e1fc" d="M 35.5,12.5 C 33.8516,13.9265 31.8516,14.7599 29.5,15C 28.792,17.5886 27.4587,19.7553 25.5,21.5C 21.2989,19.8763 16.9655,18.8763 12.5,18.5C 12.5,18.1667 12.5,17.8333 12.5,17.5C 17.5403,12.4421 21.8736,6.7754 25.5,0.5C 30.7129,3.03688 34.0462,7.03688 35.5,12.5 Z"/></g>
<g><path style="opacity:1" fill="#1daeed" d="M 56.5,11.5 C 59.9031,13.8998 62.5698,16.8998 64.5,20.5C 62.1956,23.1413 59.8623,25.808 57.5,28.5C 53.6811,27.2252 50.0144,27.7252 46.5,30C 43.1832,30.4983 39.8499,30.665 36.5,30.5C 35.1667,30.1667 35.1667,29.8333 36.5,29.5C 40.6028,27.7836 43.9361,25.1169 46.5,21.5C 46.3359,18.8127 46.5026,16.146 47,13.5C 49.7868,14.8049 52.2868,16.4715 54.5,18.5C 56.107,17.1446 56.7736,14.8112 56.5,11.5 Z"/></g>
<g><path style="opacity:0.012" fill="#14203f" d="M 56.5,11.5 C 56.7736,14.8112 56.107,17.1446 54.5,18.5C 54.4095,15.8478 55.0762,13.5145 56.5,11.5 Z"/></g>
<g><path style="opacity:0.051" fill="#08163c" d="M 11.5,15.5 C 12.3382,15.8417 12.6716,16.5084 12.5,17.5C 12.5,17.8333 12.5,18.1667 12.5,18.5C 11.8333,19.1667 11.1667,19.8333 10.5,20.5C 10.6287,18.7839 10.962,17.1172 11.5,15.5 Z"/></g>
<g><path style="opacity:1" fill="#62d1ed" d="M 11.5,15.5 C 10.962,17.1172 10.6287,18.7839 10.5,20.5C 9.22641,21.1894 9.22641,22.0228 10.5,23C 9.83333,23.3333 9.16667,23.6667 8.5,24C 8.43839,27.6815 8.60505,31.5148 9,35.5C 8.66667,34.8333 8.33333,34.1667 8,33.5C 7.66667,34.8333 7.33333,36.1667 7,37.5C 7.07687,33.7708 6.91021,30.1041 6.5,26.5C 5.41641,27.6651 4.58308,28.9984 4,30.5C 3.51722,29.552 3.35055,28.552 3.5,27.5C 4.17202,22.1628 6.83868,18.1628 11.5,15.5 Z"/></g>
<g><path style="opacity:0.895" fill="#fafafa" d="M 73.5,23.5 C 78.5,23.5 83.5,23.5 88.5,23.5C 88.5,24.5 88.5,25.5 88.5,26.5C 84.8333,26.5 81.1667,26.5 77.5,26.5C 77.5,29.8333 77.5,33.1667 77.5,36.5C 80.5,36.5 83.5,36.5 86.5,36.5C 86.5,37.8333 86.5,39.1667 86.5,40.5C 83.5,40.5 80.5,40.5 77.5,40.5C 77.5,44.5 77.5,48.5 77.5,52.5C 76.1667,52.5 74.8333,52.5 73.5,52.5C 73.5,42.8333 73.5,33.1667 73.5,23.5 Z"/></g>
<g><path style="opacity:1" fill="#35b9ee" d="M 35.5,12.5 C 37.0739,14.1016 37.7406,16.1016 37.5,18.5C 31.3278,18.8962 26.3278,21.5629 22.5,26.5C 19.2841,28.5732 17.2841,31.5732 16.5,35.5C 18.5332,37.5066 20.5332,39.5066 22.5,41.5C 23.4408,43.0495 24.1075,44.7162 24.5,46.5C 22.3794,44.867 20.046,43.5336 17.5,42.5C 16.2048,40.6721 15.2048,38.6721 14.5,36.5C 13.3279,36.9186 12.3279,37.5853 11.5,38.5C 13.3071,42.1405 15.9738,44.9739 19.5,47C 17.7292,47.037 15.8958,46.8703 14,46.5C 12.3419,46.6752 11.0086,47.3418 10,48.5C 8.47869,45.9544 6.97869,45.9544 5.5,48.5C 4.3485,46.2209 3.3485,43.8876 2.5,41.5C 1.21115,36.7539 1.54448,32.0872 3.5,27.5C 3.35055,28.552 3.51722,29.552 4,30.5C 4.58308,28.9984 5.41641,27.6651 6.5,26.5C 6.91021,30.1041 7.07687,33.7708 7,37.5C 7.33333,36.1667 7.66667,34.8333 8,33.5C 8.33333,34.1667 8.66667,34.8333 9,35.5C 8.60505,31.5148 8.43839,27.6815 8.5,24C 9.16667,23.6667 9.83333,23.3333 10.5,23C 9.22641,22.0228 9.22641,21.1894 10.5,20.5C 11.1667,19.8333 11.8333,19.1667 12.5,18.5C 16.9655,18.8763 21.2989,19.8763 25.5,21.5C 27.4587,19.7553 28.792,17.5886 29.5,15C 31.8516,14.7599 33.8516,13.9265 35.5,12.5 Z"/></g>
<g><path style="opacity:0.942" fill="#00e9f9" d="M 172.5,24.5 C 177.869,23.9801 182.869,24.9801 187.5,27.5C 189.283,31.5393 188.616,35.0393 185.5,38C 188.581,39.312 190.248,41.6454 190.5,45C 190.248,48.3546 188.581,50.688 185.5,52C 181.249,53.1946 176.915,53.6946 172.5,53.5C 172.5,43.8333 172.5,34.1667 172.5,24.5 Z M 176.5,27.5 C 178.927,27.523 181.26,28.023 183.5,29C 185.314,35.0265 182.981,37.5265 176.5,36.5C 176.5,33.5 176.5,30.5 176.5,27.5 Z M 176.5,39.5 C 184.649,38.7863 186.982,41.953 183.5,49C 181.19,49.4966 178.857,49.6633 176.5,49.5C 176.5,46.1667 176.5,42.8333 176.5,39.5 Z"/></g>
<g><path style="opacity:1" fill="#0d93e9" d="M 64.5,20.5 C 67.9147,24.065 69.5813,28.3983 69.5,33.5C 69.7489,37.4578 69.0823,41.1244 67.5,44.5C 66.1667,42.5 66.1667,40.5 67.5,38.5C 68.4124,37.2618 68.5791,35.9285 68,34.5C 61.4541,41.6798 53.6208,46.6798 44.5,49.5C 46.5293,47.1415 48.5293,44.8082 50.5,42.5C 52.2227,40.22 52.8893,37.5533 52.5,34.5C 55.967,34.5543 58.6337,33.0543 60.5,30C 59.7562,28.9614 58.7562,28.4614 57.5,28.5C 59.8623,25.808 62.1956,23.1413 64.5,20.5 Z"/></g>
<g><path style="opacity:0.865" fill="#fafafa" d="M 106.5,51.5 C 106.5,51.8333 106.5,52.1667 106.5,52.5C 101.5,52.5 96.5,52.5 91.5,52.5C 91.5,44.8333 91.5,37.1667 91.5,29.5C 92.8333,29.5 94.1667,29.5 95.5,29.5C 95.5,35.8333 95.5,42.1667 95.5,48.5C 99.1667,48.5 102.833,48.5 106.5,48.5C 106.5,49.5 106.5,50.5 106.5,51.5 Z"/></g>
<g><path style="opacity:0.855" fill="#f9f9f9" d="M 106.5,52.5 C 106.5,52.1667 106.5,51.8333 106.5,51.5C 109.738,44.4594 112.405,37.1261 114.5,29.5C 116.467,29.2606 118.301,29.5939 120,30.5C 122.808,37.7567 125.308,45.0901 127.5,52.5C 123.849,52.8383 122.183,51.1716 122.5,47.5C 119.102,47.1796 115.768,47.513 112.5,48.5C 111.754,49.7362 111.421,51.0695 111.5,52.5C 109.833,52.5 108.167,52.5 106.5,52.5 Z M 116.5,35.5 C 118.555,37.2339 119.888,39.5672 120.5,42.5C 118.604,43.4656 116.604,43.7989 114.5,43.5C 114.963,40.779 115.629,38.1123 116.5,35.5 Z"/></g>
<g><path style="opacity:0.879" fill="#f9f9f9" d="M 134.5,29.5 C 139.06,28.6581 142.727,29.9914 145.5,33.5C 145.167,34.5 144.5,35.1667 143.5,35.5C 141.408,32.8478 138.742,32.0145 135.5,33C 134.253,34.4936 134.253,35.9936 135.5,37.5C 139.538,38.6011 143.038,40.6011 146,43.5C 147.157,47.3458 145.991,50.1792 142.5,52C 139.5,52.6667 136.5,52.6667 133.5,52C 131.697,51.3632 130.364,50.1965 129.5,48.5C 129.887,47.2801 130.72,46.6135 132,46.5C 135.675,50.3577 139.175,50.3577 142.5,46.5C 140.445,43.2954 137.445,41.462 133.5,41C 129.307,36.6832 129.64,32.8499 134.5,29.5 Z"/></g>
<g><path style="opacity:0.861" fill="#fafafa" d="M 151.5,29.5 C 152.833,29.5 154.167,29.5 155.5,29.5C 155.5,32.8333 155.5,36.1667 155.5,39.5C 158.833,39.5 162.167,39.5 165.5,39.5C 165.5,36.1667 165.5,32.8333 165.5,29.5C 166.833,29.5 168.167,29.5 169.5,29.5C 169.5,37.1667 169.5,44.8333 169.5,52.5C 168.167,52.5 166.833,52.5 165.5,52.5C 165.5,49.1667 165.5,45.8333 165.5,42.5C 162.167,42.5 158.833,42.5 155.5,42.5C 155.5,45.8333 155.5,49.1667 155.5,52.5C 154.167,52.5 152.833,52.5 151.5,52.5C 151.5,44.8333 151.5,37.1667 151.5,29.5 Z"/></g>
<g><path style="opacity:1" fill="#40dcfc" d="M 23.5,32.5 C 22.5233,35.2869 22.19,38.2869 22.5,41.5C 20.5332,39.5066 18.5332,37.5066 16.5,35.5C 17.2841,31.5732 19.2841,28.5732 22.5,26.5C 24.4546,25.6765 26.4546,25.5099 28.5,26C 26.2101,27.7772 24.5434,29.9438 23.5,32.5 Z"/></g>
<g><path style="opacity:0.892" fill="#00e8f9" d="M 199.5,30.5 C 201.144,30.2865 202.644,30.6198 204,31.5C 207.208,38.625 209.708,45.9584 211.5,53.5C 210.167,53.5 208.833,53.5 207.5,53.5C 207.167,51.5 206.833,49.5 206.5,47.5C 203.482,47.3354 200.482,47.502 197.5,48C 196.74,49.4411 196.074,50.9411 195.5,52.5C 194.311,53.4287 192.978,53.762 191.5,53.5C 193.881,45.7376 196.547,38.0709 199.5,30.5 Z M 201.5,36.5 C 202.67,38.6502 203.67,40.9836 204.5,43.5C 202.5,44.8333 200.5,44.8333 198.5,43.5C 199.702,41.2195 200.702,38.8862 201.5,36.5 Z"/></g>
<g><path style="opacity:0.919" fill="#00e9f9" d="M 214.5,30.5 C 216.604,30.2011 218.604,30.5344 220.5,31.5C 222.667,36.5 224.833,41.5 227,46.5C 227.499,41.1771 227.666,35.8437 227.5,30.5C 228.5,30.5 229.5,30.5 230.5,30.5C 230.5,38.1667 230.5,45.8333 230.5,53.5C 228.712,53.7852 227.045,53.4519 225.5,52.5C 223.333,47.5 221.167,42.5 219,37.5C 218.501,42.8229 218.334,48.1563 218.5,53.5C 217.167,53.5 215.833,53.5 214.5,53.5C 214.5,45.8333 214.5,38.1667 214.5,30.5 Z"/></g>
<g><path style="opacity:0.872" fill="#00e8f9" d="M 236.5,30.5 C 237.833,30.5 239.167,30.5 240.5,30.5C 240.336,33.1873 240.503,35.854 241,38.5C 243.285,36.0934 245.451,33.5934 247.5,31C 248.944,30.2195 250.277,30.3861 251.5,31.5C 249.213,35.1219 246.547,38.4552 243.5,41.5C 247.02,45.1855 250.353,49.0188 253.5,53C 251.833,53.6667 250.167,53.6667 248.5,53C 245.628,50.4634 243.128,47.6301 241,44.5C 240.502,47.4816 240.335,50.4816 240.5,53.5C 239.167,53.5 237.833,53.5 236.5,53.5C 236.5,45.8333 236.5,38.1667 236.5,30.5 Z"/></g>
<g><path style="opacity:1" fill="#194abc" d="M 37.5,18.5 C 40.59,19.3528 43.59,20.3528 46.5,21.5C 43.9361,25.1169 40.6028,27.7836 36.5,29.5C 33.8928,26.861 31.2261,27.0277 28.5,30C 29.7376,29.9227 30.7376,30.0894 31.5,30.5C 30.3881,31.2652 29.7214,32.2652 29.5,33.5C 28.1667,34.5 26.8333,35.5 25.5,36.5C 24.3995,35.3951 23.7329,34.0618 23.5,32.5C 24.5434,29.9438 26.2101,27.7772 28.5,26C 26.4546,25.5099 24.4546,25.6765 22.5,26.5C 26.3278,21.5629 31.3278,18.8962 37.5,18.5 Z"/></g>
<g><path style="opacity:1" fill="#66dcfb" d="M 57.5,28.5 C 58.7562,28.4614 59.7562,28.9614 60.5,30C 58.6337,33.0543 55.967,34.5543 52.5,34.5C 52.8893,37.5533 52.2227,40.22 50.5,42.5C 51.2264,38.7396 49.8931,36.073 46.5,34.5C 45.391,34.4431 44.391,34.1098 43.5,33.5C 40.3695,34.0922 38.0361,33.0922 36.5,30.5C 39.8499,30.665 43.1832,30.4983 46.5,30C 50.0144,27.7252 53.6811,27.2252 57.5,28.5 Z"/></g>
<g><path style="opacity:1" fill="#303dbe" d="M 36.5,29.5 C 35.1667,29.8333 35.1667,30.1667 36.5,30.5C 38.0361,33.0922 40.3695,34.0922 43.5,33.5C 42.0821,35.3079 40.0821,35.9746 37.5,35.5C 37.762,36.9778 37.4287,38.3112 36.5,39.5C 34.2706,38.4229 31.9372,37.7563 29.5,37.5C 29.5,36.1667 29.5,34.8333 29.5,33.5C 29.7214,32.2652 30.3881,31.2652 31.5,30.5C 30.7376,30.0894 29.7376,29.9227 28.5,30C 31.2261,27.0277 33.8928,26.861 36.5,29.5 Z"/></g>
<g><path style="opacity:1" fill="#0087e8" d="M 67.5,38.5 C 57.4248,47.2485 45.9248,53.5819 33,57.5C 32,57.1667 31,56.8333 30,56.5C 26.7555,57.5717 23.5888,58.5717 20.5,59.5C 18.246,58.8763 16.5794,57.543 15.5,55.5C 22.2644,54.0138 28.9311,52.6804 35.5,51.5C 38.5979,51.2444 41.5979,50.5778 44.5,49.5C 53.6208,46.6798 61.4541,41.6798 68,34.5C 68.5791,35.9285 68.4124,37.2618 67.5,38.5 Z"/></g>
<g><path style="opacity:1" fill="#332d9b" d="M 29.5,33.5 C 29.5,34.8333 29.5,36.1667 29.5,37.5C 31.9372,37.7563 34.2706,38.4229 36.5,39.5C 37.4287,38.3112 37.762,36.9778 37.5,35.5C 40.0821,35.9746 42.0821,35.3079 43.5,33.5C 44.391,34.1098 45.391,34.4431 46.5,34.5C 46.1788,36.0481 45.1788,36.7148 43.5,36.5C 43.7394,38.4672 43.4061,40.3005 42.5,42C 39.5,42.3333 36.5,42.6667 33.5,43C 33,43.5 32.5,44 32,44.5C 30.1129,42.9739 29.1129,40.9739 29,38.5C 28.0853,39.3279 27.4186,40.3279 27,41.5C 26.6481,39.7525 26.1481,38.0858 25.5,36.5C 26.8333,35.5 28.1667,34.5 29.5,33.5 Z"/></g>
<g><path style="opacity:1" fill="#23277d" d="M 23.5,32.5 C 23.7329,34.0618 24.3995,35.3951 25.5,36.5C 26.1481,38.0858 26.6481,39.7525 27,41.5C 27.4186,40.3279 28.0853,39.3279 29,38.5C 29.1129,40.9739 30.1129,42.9739 32,44.5C 32.5,44 33,43.5 33.5,43C 36.5,42.6667 39.5,42.3333 42.5,42C 43.4061,40.3005 43.7394,38.4672 43.5,36.5C 45.1788,36.7148 46.1788,36.0481 46.5,34.5C 49.8931,36.073 51.2264,38.7396 50.5,42.5C 48.5293,44.8082 46.5293,47.1415 44.5,49.5C 41.5979,50.5778 38.5979,51.2444 35.5,51.5C 31.185,51.1672 27.5183,49.5005 24.5,46.5C 24.1075,44.7162 23.4408,43.0495 22.5,41.5C 22.19,38.2869 22.5233,35.2869 23.5,32.5 Z"/></g>
<g><path style="opacity:1" fill="#0a94e9" d="M 24.5,46.5 C 27.5183,49.5005 31.185,51.1672 35.5,51.5C 28.9311,52.6804 22.2644,54.0138 15.5,55.5C 13.9657,54.7971 12.299,54.9637 10.5,56C 11.2524,56.6708 11.5858,57.5041 11.5,58.5C 8.4977,55.8388 6.4977,52.5055 5.5,48.5C 6.97869,45.9544 8.47869,45.9544 10,48.5C 11.0086,47.3418 12.3419,46.6752 14,46.5C 15.8958,46.8703 17.7292,47.037 19.5,47C 15.9738,44.9739 13.3071,42.1405 11.5,38.5C 12.3279,37.5853 13.3279,36.9186 14.5,36.5C 15.2048,38.6721 16.2048,40.6721 17.5,42.5C 20.046,43.5336 22.3794,44.867 24.5,46.5 Z"/></g>
<g><path style="opacity:1" fill="#0080e7" d="M 67.5,38.5 C 66.1667,40.5 66.1667,42.5 67.5,44.5C 67.5,45.5 67.5,46.5 67.5,47.5C 66.8333,46.8333 66.1667,46.1667 65.5,45.5C 64.7494,44.4265 63.7494,44.2599 62.5,45C 60.2394,48.1375 57.406,50.6375 54,52.5C 52.2835,51.4477 51.2835,52.1144 51,54.5C 50.6667,54.1667 50.3333,53.8333 50,53.5C 47.1585,55.7824 44.1585,56.7824 41,56.5C 40.3333,57.1667 39.6667,57.8333 39,58.5C 37.0886,58.7451 35.0886,58.7451 33,58.5C 32.196,59.8045 31.0293,60.4712 29.5,60.5C 26.5514,59.6978 23.5514,59.3645 20.5,59.5C 23.5888,58.5717 26.7555,57.5717 30,56.5C 31,56.8333 32,57.1667 33,57.5C 45.9248,53.5819 57.4248,47.2485 67.5,38.5 Z"/></g>
<g><path style="opacity:0.086" fill="#030937" d="M 69.5,33.5 C 70.5739,53.4421 61.2406,65.9421 41.5,71C 22.8342,72.659 10.0009,64.8257 3,47.5C 2.50454,45.5273 2.33788,43.5273 2.5,41.5C 3.3485,43.8876 4.3485,46.2209 5.5,48.5C 6.4977,52.5055 8.4977,55.8388 11.5,58.5C 26.5326,72.333 42.1993,72.9996 58.5,60.5C 62.2499,56.6604 65.2499,52.327 67.5,47.5C 67.5,46.5 67.5,45.5 67.5,44.5C 69.0823,41.1244 69.7489,37.4578 69.5,33.5 Z"/></g>
<g><path style="opacity:0.997" fill="#055bcd" d="M 65.5,45.5 C 66.1667,46.1667 66.8333,46.8333 67.5,47.5C 65.2499,52.327 62.2499,56.6604 58.5,60.5C 42.1993,72.9996 26.5326,72.333 11.5,58.5C 11.5858,57.5041 11.2524,56.6708 10.5,56C 12.299,54.9637 13.9657,54.7971 15.5,55.5C 16.5794,57.543 18.246,58.8763 20.5,59.5C 36.795,67.1663 50.9617,64.1663 63,50.5C 64.0945,48.9221 64.9278,47.2554 65.5,45.5 Z"/></g>
<g><path style="opacity:1" fill="#0079e5" d="M 65.5,45.5 C 64.9278,47.2554 64.0945,48.9221 63,50.5C 50.9617,64.1663 36.795,67.1663 20.5,59.5C 23.5514,59.3645 26.5514,59.6978 29.5,60.5C 31.0293,60.4712 32.196,59.8045 33,58.5C 35.0886,58.7451 37.0886,58.7451 39,58.5C 39.6667,57.8333 40.3333,57.1667 41,56.5C 44.1585,56.7824 47.1585,55.7824 50,53.5C 50.3333,53.8333 50.6667,54.1667 51,54.5C 51.2835,52.1144 52.2835,51.4477 54,52.5C 57.406,50.6375 60.2394,48.1375 62.5,45C 63.7494,44.2599 64.7494,44.4265 65.5,45.5 Z"/></g>
</svg>
